<svg width="40" height="40" viewBox="0 0 40 40" fill="none" xmlns="http://www.w3.org/2000/svg">
<circle cx="20" cy="20" r="18" fill="#2B2B2B"/>
<path d="M13.0176 21.248H18.7012V26.9316C18.7012 27.6445 19.2871 28.2305 20 28.2305C20.7129 28.2305 21.2988 27.6445 21.2988 26.9316V21.248H26.9824C27.6953 21.248 28.2812 20.6719 28.2812 19.9492C28.2812 19.2363 27.6953 18.6504 26.9824 18.6504H21.2988V12.9668C21.2988 12.2539 20.7129 11.668 20 11.668C19.2871 11.668 18.7012 12.2539 18.7012 12.9668V18.6504H13.0176C12.3047 18.6504 11.7188 19.2363 11.7188 19.9492C11.7188 20.6719 12.3047 21.248 13.0176 21.248Z" fill="white"/>
</svg>
