<svg width="20" height="20" viewBox="0 0 20 20" fill="none" xmlns="http://www.w3.org/2000/svg">
    <path
        d="M9.99961 19.5703C15.1061 19.5703 19.3072 15.3691 19.3072 10.2627C19.3072 5.14746 15.1061 0.946289 9.99082 0.946289C4.87559 0.946289 0.683203 5.14746 0.683203 10.2627C0.683203 15.3691 4.88437 19.5703 9.99961 19.5703ZM9.99961 13.3828C7.79355 13.3828 6.0709 14.1475 5.06894 15.1318C3.83848 13.8838 3.08262 12.1611 3.08262 10.2627C3.08262 6.42188 6.15879 3.33691 9.99082 3.33691C13.8229 3.33691 16.9166 6.42188 16.9166 10.2627C16.9166 12.1611 16.1607 13.8838 14.9215 15.1318C13.9195 14.1475 12.2057 13.3828 9.99961 13.3828ZM9.99961 12.0293C11.7223 12.0381 13.0494 10.5615 13.0494 8.68945C13.0494 6.92285 11.7047 5.41992 9.99961 5.41992C8.29453 5.41992 6.93223 6.92285 6.9498 8.68945C6.9498 10.5615 8.27695 12.0205 9.99961 12.0293Z"
        fill="currentColor" />
</svg>