<svg width="20" height="18" viewBox="0 0 20 18" fill="none" xmlns="http://www.w3.org/2000/svg">
    <path
        d="M2.73145 4.81348H17.2598C18.4551 4.81348 19.0615 4.1543 19.0615 2.96777V2.07129C19.0615 0.893555 18.4551 0.234375 17.2598 0.234375H2.73145C1.57129 0.234375 0.929688 0.893555 0.929688 2.07129V2.96777C0.929688 4.1543 1.54492 4.81348 2.73145 4.81348ZM5.1748 17.1006H14.8164C16.7764 17.1006 17.9014 15.9932 17.9014 14.0332V6.25488H2.08984V14.0332C2.08984 16.002 3.20605 17.1006 5.1748 17.1006ZM7.29297 9.94629C6.7832 9.94629 6.40527 9.56836 6.40527 9.0498V8.76855C6.40527 8.24121 6.7832 7.88086 7.29297 7.88086H12.707C13.2168 7.88086 13.5947 8.24121 13.5947 8.76855V9.0498C13.5947 9.56836 13.2168 9.94629 12.707 9.94629H7.29297Z"
        fill="currentColor" />
</svg>