<svg width="10" height="15" viewBox="0 0 10 15" fill="none" xmlns="http://www.w3.org/2000/svg">
    <path
        d="M9.39062 7.35938C9.38281 6.94531 9.24219 6.61719 8.90625 6.28906L3.02344 0.539062C2.77344 0.296875 2.48438 0.171875 2.125 0.171875C1.40625 0.171875 0.8125 0.757812 0.8125 1.46875C0.8125 1.82812 0.960938 2.15625 1.23438 2.42969L6.32812 7.35156L1.23438 12.2891C0.960938 12.5547 0.8125 12.8828 0.8125 13.25C0.8125 13.9609 1.40625 14.5469 2.125 14.5469C2.47656 14.5469 2.77344 14.4297 3.02344 14.1797L8.90625 8.42969C9.24219 8.10156 9.39062 7.76562 9.39062 7.35938Z"
        fill="currentColor" />
</svg>