<svg width="17" height="19" viewBox="0 0 17 19" fill="none" xmlns="http://www.w3.org/2000/svg">
    <path
        d="M13.75 9.74219L7.96094 15.5312C6.51562 16.9844 4.57812 16.8516 3.33594 15.5938C2.07812 14.3516 1.95312 12.4219 3.40625 10.9688L11.3359 3.03125C12.1641 2.20312 13.4141 2.03125 14.2344 2.85156C15.0625 3.67969 14.8828 4.92188 14.0547 5.75L6.24219 13.5781C5.92969 13.8906 5.55469 13.8047 5.33594 13.5938C5.13281 13.375 5.04688 13.0078 5.35938 12.6875L10.8047 7.24219C11.1094 6.9375 11.125 6.48438 10.8281 6.1875C10.5312 5.89844 10.0781 5.90625 9.77344 6.21094L4.30469 11.6875C3.42969 12.5625 3.46875 13.9062 4.24219 14.6875C5.08594 15.5312 6.36719 15.5078 7.24219 14.6328L15.1016 6.77344C16.6562 5.21875 16.6016 3.17188 15.2344 1.79688C13.8906 0.460938 11.8125 0.375 10.2578 1.92969L2.26562 9.92969C0.25 11.9453 0.382812 14.8594 2.22656 16.7031C4.07031 18.5469 6.98438 18.6797 9.00781 16.6641L14.8359 10.8359C15.1328 10.5469 15.1328 10.0078 14.8281 9.72656C14.5391 9.41406 14.0547 9.44531 13.75 9.74219Z"
        fill="currentColor" />
</svg>