<svg width="14" height="14" viewBox="0 0 14 14" fill="none" xmlns="http://www.w3.org/2000/svg">
    <path
        d="M0.84375 2.59375H13.1484C13.5391 2.59375 13.7969 2.33594 13.7969 1.94531V1.33594C13.7969 0.945312 13.5391 0.695312 13.1484 0.695312H0.84375C0.453125 0.695312 0.195312 0.945312 0.195312 1.33594V1.94531C0.195312 2.33594 0.453125 2.59375 0.84375 2.59375ZM1.03906 7.40625H12.9531C13.4688 7.40625 13.7969 7.07812 13.7969 6.54688V5.46094C13.7969 4.9375 13.4688 4.60156 12.9531 4.60156H1.03906C0.523438 4.60156 0.195312 4.9375 0.195312 5.46094V6.54688C0.195312 7.07812 0.523438 7.40625 1.03906 7.40625ZM1.03906 14H12.9531C13.4688 14 13.7969 13.6641 13.7969 13.1406V10.2578C13.7969 9.72656 13.4688 9.39062 12.9531 9.39062H1.03906C0.523438 9.39062 0.195312 9.72656 0.195312 10.2578V13.1406C0.195312 13.6641 0.523438 14 1.03906 14Z"
        fill="currentColor" />
</svg>