<svg width="22" height="17" viewBox="0 0 22 17" fill="none" xmlns="http://www.w3.org/2000/svg">
    <path
        d="M3.63477 16.6699H18.3652C20.3867 16.6699 21.5029 15.5625 21.5029 13.5586V8.50488C21.5029 7.21289 21.3447 6.66797 20.7471 5.9209L18.1367 2.55469C16.9941 1.0957 16.4316 0.65625 14.7881 0.65625H7.20312C5.55957 0.65625 5.00586 1.0957 3.86328 2.55469L1.25293 5.9209C0.664062 6.67676 0.49707 7.21289 0.49707 8.50488V13.5586C0.49707 15.5625 1.61328 16.6699 3.63477 16.6699ZM11 10.7109C9.64648 10.7109 8.82031 9.79688 8.82031 8.64551V8.50488C8.82031 8.0918 8.56543 7.6875 8.04688 7.6875H3.29199C2.92285 7.6875 2.86133 7.37988 3.0459 7.13379L6.15723 3.12598C6.47363 2.71289 6.84277 2.51953 7.35254 2.51953H14.6475C15.1572 2.51953 15.5176 2.71289 15.834 3.12598L18.9453 7.13379C19.1299 7.37988 19.0771 7.6875 18.708 7.6875H13.9531C13.4258 7.6875 13.1797 8.0918 13.1797 8.50488V8.64551C13.1797 9.79688 12.3535 10.7109 11 10.7109Z"
        fill="currentColor" />
</svg>