<svg width="24" height="24" viewBox="0 0 24 24" fill="currentColor" xmlns="http://www.w3.org/2000/svg">
<path d="M5.85645 20.1006H18.1348C20.1562 20.1006 21.2725 18.9844 21.2725 16.9805V6.35449C21.2725 4.3418 20.1562 3.23438 18.1348 3.23438H5.85645C3.83496 3.23438 2.71875 4.3418 2.71875 6.35449V16.9805C2.71875 18.9932 3.83496 20.1006 5.85645 20.1006ZM6.05859 17.7451C5.4082 17.7451 5.07422 17.4375 5.07422 16.752V9C5.07422 8.31445 5.4082 8.00684 6.05859 8.00684H17.9326C18.5742 8.00684 18.917 8.31445 18.917 9V16.752C18.917 17.4375 18.5742 17.7451 17.9326 17.7451H6.05859ZM10.3477 10.8193H10.8662C11.1826 10.8193 11.2969 10.7227 11.2969 10.3975V9.87891C11.2969 9.5625 11.1826 9.45703 10.8662 9.45703H10.3477C10.0225 9.45703 9.9082 9.5625 9.9082 9.87891V10.3975C9.9082 10.7227 10.0225 10.8193 10.3477 10.8193ZM13.125 10.8193H13.6436C13.9688 10.8193 14.083 10.7227 14.083 10.3975V9.87891C14.083 9.5625 13.9688 9.45703 13.6436 9.45703H13.125C12.8086 9.45703 12.6943 9.5625 12.6943 9.87891V10.3975C12.6943 10.7227 12.8086 10.8193 13.125 10.8193ZM15.9111 10.8193H16.4297C16.7461 10.8193 16.8604 10.7227 16.8604 10.3975V9.87891C16.8604 9.5625 16.7461 9.45703 16.4297 9.45703H15.9111C15.5859 9.45703 15.4717 9.5625 15.4717 9.87891V10.3975C15.4717 10.7227 15.5859 10.8193 15.9111 10.8193ZM7.57031 13.5615H8.08008C8.40527 13.5615 8.51953 13.4561 8.51953 13.1309V12.6211C8.51953 12.2959 8.40527 12.1904 8.08008 12.1904H7.57031C7.24512 12.1904 7.13086 12.2959 7.13086 12.6211V13.1309C7.13086 13.4561 7.24512 13.5615 7.57031 13.5615ZM10.3477 13.5615H10.8662C11.1826 13.5615 11.2969 13.4561 11.2969 13.1309V12.6211C11.2969 12.2959 11.1826 12.1904 10.8662 12.1904H10.3477C10.0225 12.1904 9.9082 12.2959 9.9082 12.6211V13.1309C9.9082 13.4561 10.0225 13.5615 10.3477 13.5615ZM13.125 13.5615H13.6436C13.9688 13.5615 14.083 13.4561 14.083 13.1309V12.6211C14.083 12.2959 13.9688 12.1904 13.6436 12.1904H13.125C12.8086 12.1904 12.6943 12.2959 12.6943 12.6211V13.1309C12.6943 13.4561 12.8086 13.5615 13.125 13.5615ZM15.9111 13.5615H16.4297C16.7461 13.5615 16.8604 13.4561 16.8604 13.1309V12.6211C16.8604 12.2959 16.7461 12.1904 16.4297 12.1904H15.9111C15.5859 12.1904 15.4717 12.2959 15.4717 12.6211V13.1309C15.4717 13.4561 15.5859 13.5615 15.9111 13.5615ZM7.57031 16.2949H8.08008C8.40527 16.2949 8.51953 16.1895 8.51953 15.873V15.3545C8.51953 15.0293 8.40527 14.9326 8.08008 14.9326H7.57031C7.24512 14.9326 7.13086 15.0293 7.13086 15.3545V15.873C7.13086 16.1895 7.24512 16.2949 7.57031 16.2949ZM10.3477 16.2949H10.8662C11.1826 16.2949 11.2969 16.1895 11.2969 15.873V15.3545C11.2969 15.0293 11.1826 14.9326 10.8662 14.9326H10.3477C10.0225 14.9326 9.9082 15.0293 9.9082 15.3545V15.873C9.9082 16.1895 10.0225 16.2949 10.3477 16.2949ZM13.125 16.2949H13.6436C13.9688 16.2949 14.083 16.1895 14.083 15.873V15.3545C14.083 15.0293 13.9688 14.9326 13.6436 14.9326H13.125C12.8086 14.9326 12.6943 15.0293 12.6943 15.3545V15.873C12.6943 16.1895 12.8086 16.2949 13.125 16.2949Z"/>
</svg>
