<svg width="30" height="18" viewBox="0 0 30 18" fill="none" xmlns="http://www.w3.org/2000/svg">
    <path
        d="M6.64062 12.5918H7.27539C7.17773 11.8887 7.13867 11.1465 7.26562 10.5312H6.74805C4.48242 10.5312 2.88086 8.93945 2.88086 6.6543C2.88086 4.37891 4.49219 2.77734 6.74805 2.77734H15.3516C17.6172 2.77734 19.2188 4.37891 19.2188 6.6543C19.2188 8.93945 17.6172 10.5312 15.3516 10.5312H12.6953C11.9727 10.7852 12.0117 12.2891 12.8418 12.5918H15.459C18.9258 12.5918 21.3867 10.1406 21.3867 6.6543C21.3867 3.16797 18.9258 0.716797 15.459 0.716797H6.64062C3.17383 0.716797 0.712891 3.16797 0.712891 6.6543C0.712891 10.1406 3.17383 12.5918 6.64062 12.5918ZM14.541 17.2793H23.3594C26.8262 17.2793 29.2871 14.8281 29.2871 11.3418C29.2871 7.85547 26.8262 5.4043 23.3594 5.4043H22.7246C22.8223 6.09766 22.8613 6.83984 22.7441 7.46484H23.252C25.5176 7.46484 27.1191 9.05664 27.1191 11.3418C27.1191 13.6172 25.5176 15.209 23.252 15.209H14.6484C12.3828 15.209 10.7812 13.6172 10.7812 11.3418C10.7812 9.05664 12.3828 7.46484 14.6484 7.46484H17.3047C18.0273 7.21094 17.998 5.70703 17.1582 5.4043H14.541C11.0742 5.4043 8.61328 7.85547 8.61328 11.3418C8.61328 14.8281 11.0742 17.2793 14.541 17.2793Z"
        fill="currentColor" />
</svg>