<svg width="18" height="18" viewBox="0 0 18 18" fill="none" xmlns="http://www.w3.org/2000/svg">
    <path
        d="M3.68223 17.5775H14.2994C16.2594 17.5775 17.3053 16.5316 17.3053 14.598V3.92811C17.3053 1.99451 16.2594 0.957405 14.2994 0.957405H3.68223C1.73105 0.957405 0.685156 1.99451 0.685156 3.92811V14.598C0.685156 16.5404 1.73105 17.5775 3.68223 17.5775ZM8.05918 13.6312C7.69883 13.6312 7.40879 13.473 7.14512 13.1478L5.03574 10.6078C4.85117 10.3793 4.77207 10.1683 4.77207 9.93104C4.77207 9.43006 5.17637 9.03455 5.66855 9.03455C5.96738 9.03455 6.1959 9.14881 6.42441 9.43006L8.03281 11.4428L11.566 5.81776C11.777 5.47498 12.0406 5.30799 12.357 5.30799C12.8404 5.30799 13.2799 5.65955 13.2799 6.16053C13.2799 6.37147 13.1832 6.59998 13.0426 6.81092L8.94687 13.1303C8.72715 13.4555 8.41953 13.6312 8.05918 13.6312Z"
        fill="currentColor" />
</svg>