<svg width="22" height="20" viewBox="0 0 22 20" fill="none" xmlns="http://www.w3.org/2000/svg">
<path d="M5.64844 19.1973H16.3613C18.4414 19.1973 19.6133 18.0547 19.6133 15.9648V6.7168C20.5215 6.4043 21.0391 5.58398 21.0391 4.48047V3.10352C21.0391 1.66797 20.1699 0.730469 18.7344 0.730469H3.27539C1.87891 0.730469 0.960938 1.66797 0.960938 3.10352V4.48047C0.960938 5.58398 1.48828 6.4043 2.39648 6.7168V15.9648C2.39648 18.0547 3.55859 19.1973 5.64844 19.1973ZM3.62695 4.82227C3.2168 4.82227 3.02148 4.61719 3.02148 4.20703V3.37695C3.02148 2.9668 3.2168 2.76172 3.62695 2.76172H18.3828C18.793 2.76172 18.9883 2.9668 18.9883 3.37695V4.20703C18.9883 4.61719 18.793 4.82227 18.3828 4.82227H3.62695ZM5.82422 17.0195C5.04297 17.0195 4.62305 16.6289 4.62305 15.8281V6.85352H17.377V15.8281C17.377 16.6289 16.9473 17.0195 16.1758 17.0195H5.82422ZM7.92383 10.877H14.0957C14.6035 10.877 14.9746 10.5059 14.9746 9.98828V9.67578C14.9746 9.14844 14.6035 8.78711 14.0957 8.78711H7.92383C7.40625 8.78711 7.04492 9.14844 7.04492 9.67578V9.98828C7.04492 10.5059 7.41602 10.877 7.92383 10.877Z" fill="currentColor"/>
</svg>
