<svg width="24" height="24" viewBox="0 0 24 24" fill="currentColor" xmlns="http://www.w3.org/2000/svg">
<path d="M4.63477 19.6699H19.3652C21.3867 19.6699 22.5029 18.5625 22.5029 16.5586V11.5049C22.5029 10.2129 22.3447 9.66797 21.7471 8.9209L19.1367 5.55469C17.9941 4.0957 17.4316 3.65625 15.7881 3.65625H8.20312C6.55957 3.65625 6.00586 4.0957 4.86328 5.55469L2.25293 8.9209C1.66406 9.67676 1.49707 10.2129 1.49707 11.5049V16.5586C1.49707 18.5625 2.61328 19.6699 4.63477 19.6699ZM12 13.7109C10.6465 13.7109 9.82031 12.7969 9.82031 11.6455V11.5049C9.82031 11.0918 9.56543 10.6875 9.04688 10.6875H4.29199C3.92285 10.6875 3.86133 10.3799 4.0459 10.1338L7.15723 6.12598C7.47363 5.71289 7.84277 5.51953 8.35254 5.51953H15.6475C16.1572 5.51953 16.5176 5.71289 16.834 6.12598L19.9453 10.1338C20.1299 10.3799 20.0771 10.6875 19.708 10.6875H14.9531C14.4258 10.6875 14.1797 11.0918 14.1797 11.5049V11.6455C14.1797 12.7969 13.3535 13.7109 12 13.7109ZM15.6562 6.86426H8.34375C8.08887 6.86426 7.9043 7.06641 7.9043 7.3125C7.9043 7.56738 8.08887 7.76074 8.34375 7.76074H15.6562C15.9023 7.76074 16.0957 7.56738 16.0957 7.3125C16.0957 7.06641 15.9023 6.86426 15.6562 6.86426ZM16.7725 8.75391H7.22754C6.96387 8.75391 6.76172 8.98242 6.76172 9.2373C6.76172 9.49219 6.96387 9.70312 7.22754 9.70312H16.7725C17.0361 9.70312 17.2383 9.49219 17.2383 9.2373C17.2383 8.98242 17.0361 8.75391 16.7725 8.75391Z"/>
</svg>
