<svg width="40" height="40" viewBox="0 0 40 40" fill="none" xmlns="http://www.w3.org/2000/svg">
    <circle cx="20" cy="20" r="19" fill="white" stroke="black" stroke-width="2" />
    <path
        d="M20 31.4805C26.1553 31.4805 31.2256 26.3994 31.2256 20.2441C31.2256 14.0889 26.1445 9.01855 20 9.01855C13.8447 9.01855 8.77441 14.0889 8.77441 20.2441C8.77441 26.3994 13.8447 31.4805 20 31.4805ZM18.8076 25.5938C18.3564 25.5938 18.002 25.4004 17.6797 25.0029L15.1016 21.8984C14.8867 21.6191 14.79 21.3613 14.79 21.0713C14.79 20.459 15.2734 19.9756 15.8857 19.9756C16.2402 19.9756 16.5195 20.1152 16.7988 20.459L18.7754 22.9189L23.083 16.0439C23.3408 15.625 23.6738 15.4209 24.0498 15.4209C24.6514 15.4209 25.1885 15.8506 25.1885 16.4629C25.1885 16.7207 25.0703 17 24.8984 17.2578L19.8818 24.9814C19.624 25.3789 19.2373 25.5938 18.8076 25.5938Z"
        fill="currentColor" />
</svg>