<svg width="22" height="17" viewBox="0 0 22 17" fill="none" xmlns="http://www.w3.org/2000/svg">
    <path
        d="M11.0084 9.00135C11.4039 9.00135 11.7555 8.80799 12.1686 8.39491L19.8678 0.713264C19.4986 0.423225 18.8834 0.2826 18.0396 0.2826H3.82773C3.04551 0.2826 2.47422 0.414436 2.13144 0.695686L9.84824 8.39491C10.2613 8.80799 10.6129 9.00135 11.0084 9.00135ZM1.09434 14.6264L7.59824 8.14881L1.14707 1.77674C0.936132 2.11951 0.821875 2.65565 0.821875 3.40272V13.1322C0.821875 13.8178 0.918554 14.3099 1.09434 14.6264ZM20.9137 14.6176C21.0895 14.3012 21.1773 13.8178 21.1773 13.1322V3.40272C21.1773 2.66444 21.0631 2.11951 20.8521 1.79432L14.4186 8.14881L20.9137 14.6176ZM3.95957 16.2523H18.1715C19.0152 16.2523 19.6217 16.0853 19.9908 15.7689L13.3727 9.17713L12.9068 9.64295C12.2828 10.2494 11.6852 10.5306 11.0084 10.5306C10.3316 10.5306 9.72519 10.2494 9.10117 9.64295L8.63535 9.18592L2.02598 15.7601C2.42148 16.0853 3.06309 16.2523 3.95957 16.2523Z"
        fill="currentColor" />
</svg>