<svg width="20" height="19" viewBox="0 0 20 19" fill="none" xmlns="http://www.w3.org/2000/svg">
    <path
        d="M10 18.9707C15.1064 18.9707 19.3076 14.7695 19.3076 9.66309C19.3076 4.54785 15.1064 0.34668 9.99121 0.34668C4.87598 0.34668 0.683594 4.54785 0.683594 9.66309C0.683594 14.7695 4.88477 18.9707 10 18.9707ZM5.25391 8.74023C5.25391 6.62207 7.00293 4.86426 9.1123 4.86426C11.2305 4.86426 12.9707 6.61328 12.9707 8.74023C12.9707 9.43457 12.7773 10.0762 12.4521 10.6387L14.4033 12.5986C14.623 12.8184 14.7197 13.0732 14.7197 13.3545C14.7197 13.9697 14.2715 14.4268 13.6738 14.4268C13.3662 14.4268 13.1025 14.3125 12.874 14.084L10.9053 12.1328C10.3779 12.4229 9.7627 12.5986 9.1123 12.5986C7.00293 12.5986 5.25391 10.8584 5.25391 8.74023ZM6.84473 8.74023C6.84473 9.98828 7.87305 10.999 9.1123 10.999C10.3604 10.999 11.3711 9.98828 11.3711 8.74023C11.3711 7.4834 10.3604 6.47266 9.1123 6.47266C7.87305 6.47266 6.84473 7.4834 6.84473 8.74023Z"
        fill="currentColor" />
</svg>