<svg width="28" height="18" viewBox="0 0 28 18" fill="none" xmlns="http://www.w3.org/2000/svg">
    <path
        d="M13.9902 17.3867C22.0078 17.3867 27.3105 10.9414 27.3105 8.96875C27.3105 6.98633 21.998 0.541016 13.9902 0.541016C6.09961 0.541016 0.679688 6.98633 0.679688 8.96875C0.679688 10.9414 6.09961 17.3867 13.9902 17.3867ZM14 14.2129C11.0703 14.2129 8.73633 11.8105 8.72656 8.96875C8.7168 6.03906 11.0703 3.72461 14 3.72461C16.9102 3.72461 19.2637 6.03906 19.2637 8.96875C19.2637 11.8105 16.9102 14.2129 14 14.2129ZM13.9902 10.9805C15.1035 10.9805 16.0117 10.0723 16.0117 8.96875C16.0117 7.86523 15.1035 6.95703 13.9902 6.95703C12.877 6.95703 11.9785 7.86523 11.9785 8.96875C11.9785 10.0723 12.877 10.9805 13.9902 10.9805Z"
        fill="currentColor" />
</svg>