<svg width="20" height="22" viewBox="0 0 20 22" fill="currentColor" xmlns="http://www.w3.org/2000/svg">
<path d="M10 12.4385C10.4131 12.4385 10.8086 12.2715 11.3447 11.9639L18.0859 8.06152C18.8945 7.58691 19.3164 7.12988 19.3164 6.41797C19.3164 5.70605 18.8945 5.24902 18.0859 4.77441L11.3447 0.87207C10.8086 0.564453 10.4131 0.397461 10 0.397461C9.58691 0.397461 9.19141 0.564453 8.65527 0.87207L1.91406 4.77441C1.09668 5.24902 0.674805 5.70605 0.674805 6.41797C0.674805 7.12988 1.09668 7.58691 1.91406 8.06152L8.65527 11.9639C9.19141 12.2715 9.58691 12.4385 10 12.4385ZM10 16.8506C10.3955 16.8506 10.7559 16.666 11.2656 16.3672L18.332 12.2363C18.9648 11.8672 19.3252 11.4189 19.3252 10.8125C19.3252 10.2588 19.0176 9.83691 18.5957 9.54688L10.835 14.0645C10.501 14.2666 10.2549 14.3809 10 14.3809C9.74512 14.3809 9.49902 14.2666 9.16504 14.0645L1.4043 9.54688C0.982422 9.83691 0.674805 10.2588 0.674805 10.8125C0.674805 11.4189 1.03516 11.8672 1.65918 12.2363L8.73438 16.3672C9.24414 16.666 9.60449 16.8506 10 16.8506ZM10 21.0693C10.3955 21.0693 10.7559 20.8848 11.2656 20.5859L18.332 16.4463C18.9561 16.0859 19.3252 15.6377 19.3252 15.0225C19.3252 14.4775 19.0176 14.0557 18.5957 13.7656L10.835 18.2832C10.501 18.4854 10.2549 18.5996 10 18.5996C9.74512 18.5996 9.49902 18.4854 9.16504 18.2832L1.4043 13.7656C0.982422 14.0557 0.674805 14.4775 0.674805 15.0225C0.674805 15.6377 1.03516 16.0859 1.65918 16.4463L8.73438 20.5859C9.24414 20.8848 9.60449 21.0693 10 21.0693Z"/>
</svg>
