<svg width="22" height="21" viewBox="0 0 22 21" fill="none" xmlns="http://www.w3.org/2000/svg">
    <path
        d="M11.791 19.7178L20.4922 11.0166C21.2305 10.2695 21.3535 9.80371 21.3535 8.67871V5.34766C21.3535 4.31055 21.1074 3.89746 20.3076 3.08887L18.3037 1.09375C17.5039 0.293945 17.082 0.0478516 16.0449 0.0478516H12.7227C11.5977 0.0478516 11.1494 0.188477 10.4111 0.926758L1.70117 9.62793C0.286133 11.043 0.277344 12.6074 1.70117 14.0312L7.3877 19.7178C8.82031 21.1416 10.3848 21.1328 11.791 19.7178ZM14.3662 7.93164C13.5928 7.93164 12.9951 7.33398 12.9951 6.56055C12.9951 5.7959 13.5928 5.18945 14.3662 5.18945C15.1484 5.18945 15.7461 5.7959 15.7461 6.56055C15.7461 7.33398 15.1484 7.93164 14.3662 7.93164Z"
        fill="currentColor" />
</svg>