<svg width="22" height="22" viewBox="0 0 22 22" fill="none" xmlns="http://www.w3.org/2000/svg">
<path d="M11 21.1641C16.5957 21.1641 21.2051 16.5449 21.2051 10.9492C21.2051 5.35352 16.5859 0.744141 11 0.744141C5.4043 0.744141 0.794922 5.35352 0.794922 10.9492C0.794922 16.5449 5.4043 21.1641 11 21.1641ZM11 18.8691C6.61523 18.8691 3.09961 15.334 3.09961 10.9492C3.09961 6.56445 6.60547 3.03906 11 3.03906C15.3848 3.03906 18.9102 6.56445 18.9199 10.9492C18.9199 15.334 15.3848 18.8691 11 18.8691ZM6.22461 12.3164H11C11.4785 12.3164 11.8594 11.9355 11.8594 11.4473V5.2168C11.8594 4.73828 11.4785 4.35742 11 4.35742C10.5117 4.35742 10.1309 4.73828 10.1309 5.2168V10.5879H6.22461C5.73633 10.5879 5.36523 10.9688 5.36523 11.4473C5.36523 11.9355 5.73633 12.3164 6.22461 12.3164Z" fill="currentColor"/>
</svg>
