<svg width="20" height="17" viewBox="0 0 20 17" fill="none" xmlns="http://www.w3.org/2000/svg">
    <path
        d="M2.57324 5.12988C2.96875 5.12988 3.24121 4.91016 3.24121 4.42676V1.52637C3.24121 1.08691 2.9248 0.823242 2.48535 0.823242C2.13379 0.823242 1.91406 0.9375 1.6416 1.11328L1.01758 1.52637C0.806641 1.66699 0.71875 1.79004 0.71875 2.00977C0.71875 2.29102 0.912109 2.47559 1.14941 2.4668C1.26367 2.45801 1.33398 2.44922 1.50098 2.34375L1.87012 2.08887H1.89648V4.42676C1.89648 4.91016 2.16895 5.12988 2.57324 5.12988ZM6.79199 4.18945H18.3936C19 4.18945 19.4834 3.70605 19.4834 3.09961C19.4834 2.49316 19.0088 2.00977 18.3936 2.00977H6.79199C6.18555 2.00977 5.70215 2.48438 5.70215 3.09961C5.70215 3.70605 6.17676 4.18945 6.79199 4.18945ZM1.08789 10.6494H3.47852C3.77734 10.6494 3.99707 10.4736 3.99707 10.1572C3.99707 9.8584 3.77734 9.66504 3.47852 9.66504H2.2832V9.62988L2.97754 9.07617C3.58398 8.60156 3.87402 8.31152 3.87402 7.74023C3.87402 6.97559 3.21484 6.4834 2.16895 6.4834C1.25488 6.4834 0.604492 6.92285 0.604492 7.51172C0.604492 7.83691 0.81543 8.0127 1.1582 8.0127C1.37793 8.0127 1.52734 7.94238 1.69434 7.74023C1.84375 7.55566 1.97559 7.46777 2.18652 7.46777C2.41504 7.46777 2.59082 7.6084 2.59082 7.83691C2.59082 8.03906 2.46777 8.19727 2.01074 8.5752L0.824219 9.5332C0.630859 9.69141 0.542969 9.86719 0.542969 10.1133C0.542969 10.4297 0.753906 10.6494 1.08789 10.6494ZM6.79199 9.75293H18.3936C19 9.75293 19.4834 9.27832 19.4834 8.66309C19.4834 8.05664 19.0088 7.57324 18.3936 7.57324H6.79199C6.18555 7.57324 5.70215 8.04785 5.70215 8.66309C5.70215 9.26953 6.17676 9.75293 6.79199 9.75293ZM2.18652 16.3447C3.35547 16.3447 4.02344 15.8525 4.02344 15.0527C4.02344 14.5342 3.66309 14.1914 3.02148 14.1299V14.1035C3.46094 14.0156 3.84766 13.6992 3.84766 13.1543C3.84766 12.416 3.10938 12.0381 2.17773 12.0381C1.45703 12.0381 0.613281 12.3545 0.613281 13.0049C0.613281 13.2861 0.81543 13.4883 1.14062 13.4883C1.35156 13.4883 1.45703 13.4092 1.59766 13.2861C1.81738 13.0752 1.98438 13.0137 2.17773 13.0137C2.42383 13.0137 2.61719 13.1191 2.61719 13.3652C2.61719 13.585 2.43262 13.7168 2.10742 13.7168H1.98438C1.72949 13.7168 1.55371 13.8574 1.55371 14.1475C1.55371 14.4287 1.7207 14.5869 1.98438 14.5869H2.11621C2.46777 14.5869 2.65234 14.7012 2.66113 14.9561C2.66113 15.167 2.4502 15.3164 2.18652 15.3164C1.87012 15.3164 1.6416 15.123 1.47461 14.9912C1.36914 14.9121 1.26367 14.8242 1.0791 14.8242C0.745117 14.8242 0.507812 15.0264 0.507812 15.3428C0.507812 15.9756 1.37793 16.3447 2.18652 16.3447ZM6.79199 15.3252H18.3936C19 15.3252 19.4834 14.8418 19.4834 14.2354C19.4834 13.6289 19.0088 13.1455 18.3936 13.1455H6.79199C6.18555 13.1455 5.70215 13.6201 5.70215 14.2354C5.70215 14.8418 6.17676 15.3252 6.79199 15.3252Z"
        fill="currentColor" />
</svg>