<svg width="24" height="22" viewBox="0 0 24 22" fill="none" xmlns="http://www.w3.org/2000/svg">
    <path
        d="M9.32422 5.72461C9.48047 5.72461 9.56836 5.62695 9.59766 5.48047C9.91992 3.81055 9.90039 3.77148 11.6289 3.43945C11.7949 3.41016 11.8926 3.3125 11.8926 3.16602C11.8926 3.00977 11.7949 2.92188 11.6484 2.89258C9.88086 2.53125 9.88086 2.50195 9.59766 0.861328C9.57812 0.705078 9.48047 0.607422 9.32422 0.607422C9.17773 0.607422 9.08008 0.705078 9.05078 0.851562C8.72852 2.53125 8.76758 2.59961 7.00977 2.89258C6.86328 2.91211 6.75586 3.00977 6.75586 3.16602C6.75586 3.3125 6.85352 3.41016 7.00977 3.43945C8.76758 3.80078 8.75781 3.83008 9.05078 5.48047C9.08008 5.62695 9.17773 5.72461 9.32422 5.72461ZM17.918 9.2207C18.084 9.2207 18.2012 9.10352 18.2305 8.9375C18.5918 7.01367 18.5625 6.92578 20.584 6.58398C20.7695 6.54492 20.8867 6.4375 20.8867 6.26172C20.8867 6.0957 20.7695 5.97852 20.5938 5.94922C18.5527 5.57812 18.5234 5.50977 18.2305 3.5957C18.2109 3.42969 18.084 3.3125 17.918 3.3125C17.7422 3.3125 17.6348 3.42969 17.6055 3.5957C17.2734 5.53906 17.2832 5.65625 15.2422 5.94922C15.0762 5.97852 14.9492 6.0957 14.9492 6.26172C14.959 6.4375 15.0664 6.54492 15.2422 6.58398C17.2832 6.94531 17.3027 7.02344 17.6055 8.9375C17.625 9.10352 17.7422 9.2207 17.918 9.2207ZM3.92383 12.2578C4.08984 12.2578 4.20703 12.1309 4.23633 11.9648C4.5293 10.041 4.56836 9.95312 6.58008 9.61133C6.76562 9.58203 6.88281 9.47461 6.88281 9.29883C6.88281 9.12305 6.76562 9.01562 6.59961 8.98633C4.55859 8.61523 4.54883 8.53711 4.23633 6.63281C4.20703 6.45703 4.08984 6.33984 3.92383 6.33984C3.74805 6.33984 3.63086 6.45703 3.61133 6.62305C3.30859 8.57617 3.2793 8.6543 1.24805 8.98633C1.07227 9.01562 0.955078 9.12305 0.955078 9.29883C0.955078 9.47461 1.07227 9.58203 1.23828 9.61133C3.2793 9.98242 3.26953 10.0703 3.61133 11.9746C3.63086 12.1309 3.74805 12.2578 3.92383 12.2578ZM20.6816 20.6562C21.209 21.1934 22.1172 21.1934 22.6348 20.6562C23.1719 20.1094 23.1621 19.2402 22.6348 18.6934L13.3574 9.35742C12.8301 8.82031 11.9219 8.83008 11.4043 9.35742C10.8672 9.91406 10.877 10.7832 11.4043 11.3203L20.6816 20.6562ZM15.291 13.8496L12.3027 10.8516C12.0781 10.627 12 10.3633 12.2148 10.1387C12.4199 9.95312 12.6934 10.0117 12.9277 10.2363L15.9062 13.2246L15.291 13.8496ZM8.67969 20.9785C8.9043 20.9785 9.07031 20.8223 9.09961 20.5781C9.41211 17.9219 9.5293 17.8242 12.2441 17.4141C12.5176 17.3848 12.6738 17.2285 12.6738 16.9941C12.6738 16.7695 12.5176 16.623 12.293 16.5742C9.53906 16.0469 9.41211 16.0664 9.09961 13.4199C9.07031 13.1758 8.9043 13.0195 8.67969 13.0195C8.45508 13.0195 8.28906 13.1758 8.25977 13.4102C7.92773 16.1152 7.83008 16.2031 5.06641 16.5742C4.85156 16.6035 4.68555 16.7695 4.68555 16.9941C4.68555 17.2188 4.8418 17.375 5.05664 17.4141C7.83984 17.9609 7.91797 17.9512 8.25977 20.5977C8.28906 20.8223 8.45508 20.9785 8.67969 20.9785Z"
        fill="currentColor" />
</svg>