<svg width="20" height="6" viewBox="0 0 20 6" fill="none" xmlns="http://www.w3.org/2000/svg">
<path d="M4.84375 2.95898C4.84375 1.73828 3.89648 0.791016 2.66602 0.791016C1.47461 0.791016 0.498047 1.75781 0.498047 2.95898C0.498047 4.13086 1.47461 5.12695 2.66602 5.12695C3.84766 5.12695 4.84375 4.13086 4.84375 2.95898ZM12.1582 2.95898C12.1582 1.73828 11.2109 0.791016 9.99023 0.791016C8.79883 0.791016 7.83203 1.75781 7.83203 2.95898C7.83203 4.13086 8.79883 5.12695 9.99023 5.12695C11.1719 5.12695 12.1582 4.13086 12.1582 2.95898ZM19.4922 2.95898C19.4922 1.73828 18.5449 0.791016 17.3242 0.791016C16.123 0.791016 15.1465 1.75781 15.1465 2.95898C15.1465 4.13086 16.123 5.12695 17.3242 5.12695C18.4961 5.12695 19.4922 4.13086 19.4922 2.95898Z" fill="currentColor"/>
</svg>
