<svg width="18" height="5" viewBox="0 0 18 5" fill="none" xmlns="http://www.w3.org/2000/svg">
    <path
        d="M4.42969 2.66309C4.42969 1.49414 3.54199 0.606445 2.36426 0.606445C1.23926 0.606445 0.307617 1.52051 0.307617 2.66309C0.307617 3.77051 1.23926 4.71973 2.36426 4.71973C3.48047 4.71973 4.42969 3.77051 4.42969 2.66309ZM11.0566 2.66309C11.0566 1.49414 10.1689 0.606445 9 0.606445C7.875 0.606445 6.94336 1.52051 6.94336 2.66309C6.94336 3.77051 7.875 4.71973 9 4.71973C10.1074 4.71973 11.0566 3.77051 11.0566 2.66309ZM17.6924 2.66309C17.6924 1.49414 16.8047 0.606445 15.6357 0.606445C14.502 0.606445 13.5703 1.52051 13.5703 2.66309C13.5703 3.77051 14.502 4.71973 15.6357 4.71973C16.7432 4.71973 17.6924 3.77051 17.6924 2.66309Z"
        fill="currentColor" />
</svg>