<svg width="20" height="19" viewBox="0 0 20 19" fill="none" xmlns="http://www.w3.org/2000/svg">
    <path
        d="M1.24219 16.8906L6.57812 11.6172L2.50781 7.60156C2.39844 7.49219 2.40625 7.35156 2.51562 7.27344L9.15625 2.35938C9.51562 2.08594 9.70312 1.96875 10 1.96875C10.2969 1.96875 10.4766 2.08594 10.8438 2.35938L17.4766 7.26562C17.5859 7.35156 17.5938 7.5 17.4844 7.61719L13.4375 11.6172L18.7578 16.8828C18.9453 16.5859 19.0469 16.1016 19.0469 15.4531V8.10938C19.0469 6.90625 18.8125 6.32031 17.7578 5.52344L12.0156 1.21094C11.2344 0.625 10.7344 0.367188 10 0.367188C9.26562 0.367188 8.76562 0.625 7.98438 1.21094L2.24219 5.52344C1.1875 6.3125 0.953125 6.90625 0.953125 8.10938V15.4531C0.953125 16.1094 1.05469 16.5938 1.24219 16.8906ZM3.625 18.2266H16.2578C17.0078 18.2266 17.5547 18.0938 17.8828 17.8359L11.0391 11.0078C10.6719 10.6406 10.3594 10.4688 10.0078 10.4688C9.65625 10.4688 9.34375 10.6406 8.97656 11.0078L2.11719 17.8594C2.42188 18.1016 2.92969 18.2266 3.625 18.2266Z"
        fill="currentColor" />
</svg>