<svg width="26" height="24" viewBox="0 0 26 24" fill="currentColor" xmlns="http://www.w3.org/2000/svg">
<path d="M17.6318 11.5928C19.6182 11.5928 21.2354 9.85254 21.2354 7.6377C21.2354 5.50195 19.6094 3.7793 17.6318 3.7793C15.6631 3.7793 14.0195 5.51953 14.0283 7.64648C14.0371 9.85254 15.6455 11.5928 17.6318 11.5928ZM7.39258 11.7861C9.12402 11.7861 10.5391 10.2656 10.5391 8.34961C10.5391 6.47754 9.11523 4.9834 7.39258 4.9834C5.67871 4.9834 4.25488 6.49512 4.25488 8.3584C4.26367 10.2656 5.66992 11.7861 7.39258 11.7861ZM2.64648 19.8457H9.08008C8.0957 18.4746 8.93945 15.8379 11.084 14.1064C10.1436 13.5352 8.88672 13.1045 7.39258 13.1045C3.54297 13.1045 0.879883 15.9346 0.879883 18.2285C0.879883 19.248 1.32812 19.8457 2.64648 19.8457ZM12.2266 19.8369H23.0283C24.5928 19.8369 25.1201 19.3184 25.1201 18.4395C25.1201 16.1895 22.1846 13.1221 17.6318 13.1221C13.0791 13.1221 10.1436 16.1895 10.1436 18.4395C10.1436 19.3184 10.6709 19.8369 12.2266 19.8369Z"/>
</svg>
