<svg width="20" height="16" viewBox="0 0 20 16" fill="none" xmlns="http://www.w3.org/2000/svg">
    <path
        d="M3.65625 15.7578H16.9062C18.6484 15.7578 19.5703 14.8281 19.5703 13.1094V3.625C19.5703 1.90625 18.6484 0.984375 16.9062 0.984375H3.65625C1.92188 0.984375 0.992188 1.90625 0.992188 3.625V13.1094C0.992188 14.8359 1.92188 15.7578 3.65625 15.7578ZM3.82031 13.9688C3.14062 13.9688 2.78125 13.625 2.78125 12.9141V3.82031C2.78125 3.10938 3.14062 2.77344 3.82031 2.77344H16.7422C17.4141 2.77344 17.7812 3.10938 17.7812 3.82031V12.9141C17.7812 13.625 17.4141 13.9688 16.7422 13.9688H3.82031Z"
        fill="currentColor" />
</svg>