<svg width="48" height="40" viewBox="0 0 48 40" fill="none" xmlns="http://www.w3.org/2000/svg">
<rect x="0.5" y="0.5" width="47" height="39" rx="7.5" fill="white"/>
<path d="M15.7285 18.8848C16.4316 18.8848 16.9492 18.3867 16.9492 17.6836V17.0781L16.7344 14.3438L18.7461 16.4629L21.3828 19.1191C21.6074 19.3535 21.9199 19.4707 22.2422 19.4707C22.9941 19.4707 23.5215 18.9531 23.5215 18.2012C23.5215 17.8691 23.3848 17.5762 23.1504 17.3418L20.5039 14.6953L18.375 12.6934L21.1484 12.8984H21.8613C22.5547 12.8984 23.0625 12.3906 23.0625 11.6875C23.0625 10.9844 22.5547 10.4668 21.8613 10.4668H16.4414C15.2207 10.4668 14.5078 11.1699 14.5078 12.4004V17.6836C14.5078 18.377 15.0352 18.8848 15.7285 18.8848ZM26.1289 29.4512H31.5488C32.7695 29.4512 33.4824 28.748 33.4824 27.5176V22.2344C33.4824 21.541 32.9551 21.0332 32.2617 21.0332C31.5586 21.0332 31.041 21.5312 31.041 22.2344V22.8398L31.2559 25.5742L29.2441 23.4551L26.6074 20.7988C26.373 20.5645 26.0703 20.4473 25.748 20.4473C24.9961 20.4473 24.4688 20.9648 24.4688 21.7168C24.4688 22.0488 24.6055 22.3418 24.8398 22.5762L27.4863 25.2227L29.6055 27.2246L26.8418 27.0195H26.1289C25.4355 27.0195 24.9277 27.5273 24.9277 28.2305C24.9277 28.9336 25.4355 29.4512 26.1289 29.4512Z" fill="currentColor"/>
<rect x="0.5" y="0.5" width="47" height="39" rx="7.5" stroke="#EDEDED"/>
</svg>
