<svg width="24" height="24" viewBox="0 0 24 24" fill="none" xmlns="http://www.w3.org/2000/svg">
    <path
        d="M11.7979 10.2305C12.0791 10.2305 12.3164 10.1426 12.4834 9.95801L16.0869 6.31934C16.3066 6.1084 16.4033 5.8623 16.4033 5.58105C16.4033 5.31738 16.2979 5.05371 16.0869 4.85156L12.4922 1.18652C12.3076 0.993164 12.0791 0.896484 11.7979 0.896484C11.2529 0.896484 10.8311 1.34473 10.8311 1.89844C10.8311 2.1709 10.9277 2.38184 11.1035 2.56641L13.0107 4.43848C12.6592 4.39453 12.2988 4.36816 11.9473 4.36816C7.57031 4.36816 4.07227 7.86621 4.07227 12.2695C4.07227 16.6641 7.61426 20.2061 12 20.2061C16.3945 20.2061 19.9277 16.6641 19.9277 12.2695C19.9277 11.6543 19.5059 11.2324 18.9082 11.2324C18.3281 11.2324 17.9238 11.6543 17.9238 12.2695C17.9238 15.5479 15.2871 18.1934 12 18.1934C8.72168 18.1934 6.08496 15.5479 6.08496 12.2695C6.08496 8.93848 8.67773 6.31055 11.9473 6.31055C12.4482 6.31055 12.9053 6.3457 13.3096 6.40723L11.1035 8.58691C10.9277 8.77148 10.8311 8.98242 10.8311 9.24609C10.8311 9.7998 11.2529 10.2305 11.7979 10.2305Z"
        fill="currentColor" />
</svg>