<svg width="32" height="32" viewBox="0 0 32 32" fill="none" xmlns="http://www.w3.org/2000/svg">
<path d="M14.1891 24.1558C14.7164 24.1558 15.1295 23.9448 15.4195 23.5142L23.6461 10.8228C23.857 10.5063 23.9449 10.2163 23.9449 9.94385C23.9449 9.22314 23.4176 8.70459 22.6793 8.70459C22.1695 8.70459 21.8619 8.88037 21.5543 9.37256L14.1539 21.0796L10.3746 16.3159C10.0758 15.9556 9.76816 15.7886 9.32871 15.7886C8.58164 15.7886 8.04551 16.3159 8.04551 17.0454C8.04551 17.3618 8.15098 17.6606 8.42344 17.9771L12.9674 23.5581C13.3102 23.9712 13.6881 24.1558 14.1891 24.1558Z" fill="white"/>
</svg>
