<svg width="20" height="20" viewBox="0 0 20 20" fill="none" xmlns="http://www.w3.org/2000/svg">
    <path
        d="M9.1998 19.9043H10.7906C11.4498 19.9043 11.9596 19.5 12.0914 18.8672L12.5133 17.1357C12.7242 17.0654 12.9352 16.9775 13.1197 16.8896L14.6314 17.8213C15.1764 18.1553 15.8268 18.0938 16.275 17.6455L17.4 16.5293C17.857 16.0723 17.9186 15.3955 17.5582 14.8594L16.6441 13.3652C16.732 13.1719 16.8111 12.9785 16.8814 12.7764L18.6217 12.3633C19.2545 12.2227 19.65 11.7129 19.65 11.0625V9.49805C19.65 8.84766 19.2545 8.34668 18.6217 8.19727L16.899 7.78418C16.8199 7.56445 16.7408 7.3623 16.6617 7.19531L17.5846 5.65723C17.9361 5.10352 17.8746 4.45312 17.4088 4.00488L16.2662 2.87988C15.8092 2.4668 15.2203 2.3877 14.6754 2.68652L13.1197 3.64453C12.9352 3.55664 12.733 3.46875 12.5133 3.38965L12.0914 1.64062C11.9596 1.00781 11.4498 0.603516 10.7906 0.603516H9.1998C8.54062 0.603516 8.03965 1.00781 7.89902 1.64062L7.48594 3.38086C7.26621 3.45117 7.04648 3.53906 6.86191 3.63574L5.31504 2.68652C4.76133 2.3877 4.18125 2.45801 3.71543 2.87988L2.58164 4.00488C2.11582 4.45312 2.06309 5.10352 2.41465 5.65723L3.32871 7.19531C3.24961 7.3623 3.17051 7.56445 3.09141 7.78418L1.36875 8.19727C0.735937 8.34668 0.340429 8.84766 0.340429 9.49805V11.0625C0.340429 11.7129 0.735937 12.2227 1.36875 12.3633L3.11777 12.7764C3.1793 12.9785 3.2584 13.1719 3.34629 13.3652L2.43223 14.8594C2.07187 15.3955 2.1334 16.0723 2.59043 16.5293L3.71543 17.6455C4.16367 18.0938 4.82285 18.1553 5.35898 17.8213L6.8707 16.8896C7.05527 16.9775 7.26621 17.0654 7.48594 17.1357L7.89902 18.8672C8.03965 19.5 8.54062 19.9043 9.1998 19.9043ZM9.99961 13.2773C8.33848 13.2773 6.97617 11.915 6.97617 10.2451C6.97617 8.60156 8.33848 7.23926 9.99961 7.23926C11.6607 7.23926 13.0143 8.60156 13.0143 10.2451C13.0143 11.915 11.6607 13.2773 9.99961 13.2773Z"
        fill="currentColor" />
</svg>