<svg width="16" height="17" viewBox="0 0 16 17" fill="none" xmlns="http://www.w3.org/2000/svg">
    <path
        d="M6.18906 16.1556C6.71641 16.1556 7.12949 15.9447 7.41953 15.514L15.6461 2.82264C15.857 2.50623 15.9449 2.21619 15.9449 1.94373C15.9449 1.22303 15.4176 0.704475 14.6793 0.704475C14.1695 0.704475 13.8619 0.880257 13.5543 1.37244L6.15391 13.0795L2.37461 8.3158C2.07578 7.95545 1.76816 7.78846 1.32871 7.78846C0.58164 7.78846 0.0455074 8.3158 0.0455074 9.0453C0.0455074 9.3617 0.150976 9.66053 0.423437 9.97694L4.96738 15.558C5.31016 15.9711 5.68809 16.1556 6.18906 16.1556Z"
        fill="currentColor" />
</svg>