<svg width="22" height="18" viewBox="0 0 22 18" fill="none" xmlns="http://www.w3.org/2000/svg">
    <path
        d="M3.63437 17.7006H18.3648C20.3863 17.7006 21.5025 16.5844 21.5025 14.5805V3.95448C21.5025 1.94179 20.3863 0.834366 18.3648 0.834366H3.63437C1.61289 0.834366 0.496679 1.94179 0.496679 3.95448V14.5805C0.496679 16.5932 1.61289 17.7006 3.63437 17.7006ZM2.85215 4.25331C2.85215 3.51503 3.2125 3.18983 3.90684 3.18983H9.8834V5.80019H2.85215V4.25331ZM18.0924 3.18983C18.7779 3.18983 19.1471 3.51503 19.1471 4.25331V5.80019H12.1158V3.18983H18.0924ZM2.85215 10.599V7.92714H9.8834V10.599H2.85215ZM12.1158 10.599V7.92714H19.1471V10.599H12.1158ZM3.90684 15.3451C3.2125 15.3451 2.85215 15.0111 2.85215 14.2816V12.726H9.8834V15.3451H3.90684ZM19.1471 14.2816C19.1471 15.0111 18.7779 15.3451 18.0924 15.3451H12.1158V12.726H19.1471V14.2816Z"
        fill="currentColor" />
</svg>