<svg width="22" height="20" viewBox="0 0 22 20" fill="none" xmlns="http://www.w3.org/2000/svg">
    <path
        d="M4.83008 19.3379C5.2959 19.6895 5.8584 19.5752 6.5 19.1094L11 15.8047L15.5 19.1094C16.1416 19.5752 16.7041 19.6895 17.1699 19.3379C17.627 18.9951 17.7148 18.4238 17.4688 17.6855L15.6846 12.4033L20.2285 9.14258C20.8613 8.69434 21.1338 8.17578 20.9492 7.63086C20.7646 7.08594 20.2549 6.82227 19.4727 6.83105L13.9092 6.875L12.2129 1.55762C11.9756 0.801758 11.5713 0.388672 11 0.388672C10.4287 0.388672 10.0332 0.801758 9.78711 1.55762L8.09082 6.875L2.52734 6.83105C1.74512 6.82227 1.23535 7.08594 1.05078 7.62207C0.857422 8.17578 1.13867 8.69434 1.77148 9.14258L6.31543 12.4033L4.53125 17.6855C4.28516 18.4238 4.37305 18.9951 4.83008 19.3379Z"
        fill="currentColor" />
</svg>