<svg width="24" height="24" viewBox="0 0 24 24" fill="none" xmlns="http://www.w3.org/2000/svg">
    <path
        d="M3.81641 21.334H20.1836C22.4297 21.334 23.6699 20.0938 23.6699 17.8672V6.06055C23.6699 3.82422 22.4297 2.59375 20.1836 2.59375H3.81641C1.57031 2.59375 0.330078 3.82422 0.330078 6.06055V17.8672C0.330078 20.1035 1.57031 21.334 3.81641 21.334ZM4.11914 18.7168C3.34766 18.7168 2.94727 18.3457 2.94727 17.5352V6.39258C2.94727 5.57227 3.34766 5.21094 4.11914 5.21094H8.75781V18.7168H4.11914ZM19.8809 5.21094C20.6426 5.21094 21.0527 5.57227 21.0527 6.39258V17.5352C21.0527 18.3457 20.6426 18.7168 19.8809 18.7168H11.1602V5.21094H19.8809ZM6.76562 8.6875C7.22461 8.6875 7.58594 8.32617 7.58594 7.91602C7.58594 7.49609 7.22461 7.13477 6.76562 7.13477H4.93945C4.49023 7.13477 4.12891 7.49609 4.12891 7.91602C4.12891 8.32617 4.49023 8.6875 4.93945 8.6875H6.76562ZM6.76562 11.4805C7.22461 11.4805 7.58594 11.1289 7.58594 10.709C7.58594 10.2891 7.22461 9.94727 6.76562 9.94727H4.93945C4.49023 9.94727 4.12891 10.2891 4.12891 10.709C4.12891 11.1289 4.49023 11.4805 4.93945 11.4805H6.76562ZM6.76562 14.2832C7.22461 14.2832 7.58594 13.9316 7.58594 13.5117C7.58594 13.0918 7.22461 12.7402 6.76562 12.7402H4.93945C4.49023 12.7402 4.12891 13.0918 4.12891 13.5117C4.12891 13.9316 4.49023 14.2832 4.93945 14.2832H6.76562Z"
        fill="#currentColor" />
</svg>