<svg width="22" height="22" viewBox="0 0 22 22" fill="none" xmlns="http://www.w3.org/2000/svg">
    <path
        d="M11 21.1641C16.5957 21.1641 21.2051 16.5449 21.2051 10.9492C21.2051 5.35352 16.5859 0.744141 11 0.744141C5.4043 0.744141 0.794922 5.35352 0.794922 10.9492C0.794922 16.5449 5.4043 21.1641 11 21.1641ZM6.22461 12.3164C5.73633 12.3164 5.36523 11.9355 5.36523 11.4473C5.36523 10.9688 5.73633 10.5879 6.22461 10.5879H10.1309V5.2168C10.1309 4.73828 10.5117 4.35742 11 4.35742C11.4785 4.35742 11.8594 4.73828 11.8594 5.2168V11.4473C11.8594 11.9355 11.4785 12.3164 11 12.3164H6.22461Z"
        fill="currentColor" />
</svg>