<svg width="24" height="22" viewBox="0 0 24 22" fill="none" xmlns="http://www.w3.org/2000/svg">
<path d="M5.14453 21.5977C5.66211 21.9883 6.28711 21.8613 7 21.3438L12 17.6719L17 21.3438C17.7129 21.8613 18.3379 21.9883 18.8555 21.5977C19.3633 21.2168 19.4609 20.582 19.1875 19.7617L17.2051 13.8926L22.2539 10.2695C22.957 9.77148 23.2598 9.19531 23.0547 8.58984C22.8496 7.98438 22.2832 7.69141 21.4141 7.70117L15.2324 7.75L13.3477 1.8418C13.084 1.00195 12.6348 0.542969 12 0.542969C11.3652 0.542969 10.9258 1.00195 10.6523 1.8418L8.76758 7.75L2.58594 7.70117C1.7168 7.69141 1.15039 7.98438 0.945312 8.58008C0.730469 9.19531 1.04297 9.77148 1.74609 10.2695L6.79492 13.8926L4.8125 19.7617C4.53906 20.582 4.63672 21.2168 5.14453 21.5977ZM7.14648 18.8438C7.13672 18.8242 7.13672 18.8145 7.14648 18.7656L8.91406 13.8438C9.11914 13.2871 9.08008 12.9844 8.54297 12.6328L4.2168 9.69336C4.17773 9.67383 4.1582 9.6543 4.16797 9.625C4.17773 9.60547 4.19727 9.60547 4.24609 9.60547L9.4707 9.75195C10.0664 9.77148 10.3398 9.61523 10.5059 9.0293L11.9512 4.00977C11.9609 3.96094 11.9805 3.94141 12 3.94141C12.0195 3.94141 12.0391 3.96094 12.0488 4.00977L13.5039 9.0293C13.6602 9.61523 13.9336 9.77148 14.5293 9.75195L19.7539 9.60547C19.8027 9.60547 19.832 9.60547 19.8418 9.625C19.8418 9.6543 19.832 9.66406 19.793 9.69336L15.457 12.6426C14.9297 12.9941 14.8809 13.2871 15.0859 13.8438L16.8535 18.7656C16.8633 18.8145 16.8633 18.8242 16.8535 18.8438C16.834 18.873 16.8145 18.8535 16.7754 18.834L12.6445 15.6211C12.166 15.2402 11.834 15.2402 11.3555 15.6211L7.22461 18.834C7.18555 18.8535 7.16602 18.873 7.14648 18.8438Z" fill="currentColor"/>
</svg>
