<svg width="20" height="20" viewBox="0 0 20 20" fill="none" xmlns="http://www.w3.org/2000/svg">
    <path
        d="M1.91406 5.56445H18.0859C19.3262 5.56445 19.9609 4.86133 19.9609 3.63086V2.66406C19.9609 1.43359 19.3262 0.730469 18.0859 0.730469H1.91406C0.722656 0.730469 0.0390625 1.43359 0.0390625 2.66406V3.63086C0.0390625 4.86133 0.673828 5.56445 1.91406 5.56445ZM4.63867 19.1973H15.3516C17.4414 19.1973 18.6035 18.0547 18.6035 15.9648V7.06836H1.38672V15.9648C1.38672 18.0547 2.54883 19.1973 4.63867 19.1973ZM6.91406 10.9648C6.40625 10.9648 6.03516 10.5938 6.03516 10.0664V9.75391C6.03516 9.23633 6.40625 8.875 6.91406 8.875H13.0859C13.6035 8.875 13.9648 9.23633 13.9648 9.75391V10.0664C13.9648 10.5938 13.5938 10.9648 13.0859 10.9648H6.91406Z"
        fill="currentColor" />
</svg>