<svg width="18" height="18" viewBox="0 0 18 18" fill="none" xmlns="http://www.w3.org/2000/svg">
    <path
        d="M3.68223 17.5775H14.2994C16.2594 17.5775 17.3053 16.5316 17.3053 14.598V3.92811C17.3053 1.99451 16.2594 0.957405 14.2994 0.957405H3.68223C1.73105 0.957405 0.685156 1.99451 0.685156 3.92811V14.598C0.685156 16.5404 1.73105 17.5775 3.68223 17.5775ZM3.8668 15.5648C3.10215 15.5648 2.69785 15.1781 2.69785 14.3783V4.14783C2.69785 3.34803 3.10215 2.9701 3.8668 2.9701H14.1236C14.8707 2.9701 15.2926 3.34803 15.2926 4.14783V14.3783C15.2926 15.1781 14.8707 15.5648 14.1236 15.5648H3.8668Z"
        fill="currentColor" />
</svg>